<?xml version="1.0" encoding="iso-8859-1"?>
<!-- Generator: Adobe Illustrator 19.0.0, SVG Export Plug-In . SVG Version: 6.00 Build 0)  -->
<svg xmlns="http://www.w3.org/2000/svg" xmlns:xlink="http://www.w3.org/1999/xlink" version="1.1" id="Layer_1" x="0px" y="0px" viewBox="0 0 512 512" style="enable-background:new 0 0 512 512;" xml:space="preserve" width="512px" height="512px">
<g>
	<g>
		<path d="M473.779,107.368l-24.066,3.246l-31.708-21.6l59.427-70.092L449.334,0l-79.355,56.295l-27.318-18.61    c-12.696-8.548-29.979-5.173-38.525,7.522c-4.141,6.15-5.639,13.544-4.218,20.82s5.59,13.564,11.782,17.734l27.487,18.234    l-22.324,94.752l28.1,18.919l42.652-81.543l31.117,20.642l6.044,23.514l29.406,19.8l12.356-42.475l36.752-28.368L473.779,107.368z     M449.558,18.403l5.389,3.628l-49.522,58.411l-22.098-15.054L449.558,18.403z M339.388,193.662l-5.389-3.628l18.64-79.114    l22.293,14.789L339.388,193.662z M453.381,146.636l-7.942,27.304l-7.432-5.004l-6.058-23.571L320.112,71.175    c-2.796-1.882-4.69-4.74-5.336-8.048c-0.645-3.307,0.035-6.668,1.918-9.463c3.885-5.77,11.74-7.304,17.477-3.443l111.818,76.172    l24.112-3.252l7.329,4.934L453.381,146.636z" fill="#006DF0"/>
	</g>
</g>
<g>
	<g>
		<path d="M27.642,331.401l-14.39,4.707c1.614,4.932,3.402,9.877,5.315,14.696l14.071-5.586    C30.841,340.688,29.16,336.039,27.642,331.401z" fill="#006DF0"/>
	</g>
</g>
<g>
	<g>
		<path d="M4.379,212.891c-0.88,5.097-1.615,10.292-2.183,15.44l15.048,1.661c0.535-4.844,1.226-9.73,2.054-14.525L4.379,212.891z" fill="#006DF0"/>
	</g>
</g>
<g>
	<g>
		<path d="M36.733,125.693c-2.656,4.439-5.21,9.017-7.589,13.607l13.441,6.966c2.239-4.316,4.641-8.623,7.139-12.798L36.733,125.693    z" fill="#006DF0"/>
	</g>
</g>
<g>
	<g>
		<path d="M22.404,153.343c-2.091,4.724-4.065,9.576-5.865,14.424l14.193,5.272c1.694-4.56,3.549-9.123,5.516-13.566L22.404,153.343    z" fill="#006DF0"/>
	</g>
</g>
<g>
	<g>
		<path d="M11.562,182.55c-1.5,4.954-2.865,10.021-4.058,15.061l14.733,3.487c1.121-4.739,2.405-9.503,3.815-14.161L11.562,182.55z" fill="#006DF0"/>
	</g>
</g>
<g>
	<g>
		<path d="M54.332,99.984c-3.178,4.087-6.271,8.322-9.191,12.587l12.493,8.552c2.746-4.013,5.656-7.998,8.648-11.844L54.332,99.984z    " fill="#006DF0"/>
	</g>
</g>
<g>
	<g>
		<path d="M16.397,273.958l-15.101,1.075c0.367,5.164,0.898,10.383,1.579,15.511l15.008-1.99    C17.243,283.728,16.743,278.818,16.397,273.958z" fill="#006DF0"/>
	</g>
</g>
<g>
	<g>
		<path d="M16.079,244.616l-15.12-0.745c-0.209,4.229-0.315,8.527-0.315,12.773c0,0.94,0.005,1.878,0.015,2.815l15.139-0.164    c-0.009-0.883-0.014-1.767-0.014-2.651C15.784,252.646,15.884,248.598,16.079,244.616z" fill="#006DF0"/>
	</g>
</g>
<g>
	<g>
		<path d="M20.257,303.027l-14.858,2.907c0.994,5.086,2.16,10.202,3.462,15.207l14.652-3.812    C22.289,312.623,21.193,307.81,20.257,303.027z" fill="#006DF0"/>
	</g>
</g>
<g>
	<g>
		<path d="M257.573,1.294l-0.093,15.14c4.871,0.029,9.805,0.21,14.667,0.536l1.012-15.106C267.993,1.517,262.75,1.325,257.573,1.294    z" fill="#006DF0"/>
	</g>
</g>
<g>
	<g>
		<path d="M180.719,12.569c-4.959,1.528-9.933,3.23-14.785,5.06l5.341,14.166c4.563-1.72,9.24-3.321,13.902-4.757L180.719,12.569z" fill="#006DF0"/>
	</g>
</g>
<g>
	<g>
		<path d="M241.99,1.666c-5.178,0.281-10.405,0.722-15.536,1.314l1.735,15.04c4.826-0.556,9.746-0.972,14.619-1.235L241.99,1.666z" fill="#006DF0"/>
	</g>
</g>
<g>
	<g>
		<path d="M38.476,358.699l-13.701,6.44c2.205,4.69,4.584,9.374,7.072,13.92l13.28-7.268    C42.788,367.515,40.55,363.111,38.476,358.699z" fill="#006DF0"/>
	</g>
</g>
<g>
	<g>
		<path d="M211.026,5.237c-5.093,0.904-10.229,1.981-15.265,3.198l3.558,14.716c4.737-1.145,9.566-2.157,14.355-3.008L211.026,5.237    z" fill="#006DF0"/>
	</g>
</g>
<g>
	<g>
		<path d="M507.816,214.062l-14.931,2.508c0.806,4.799,1.476,9.691,1.988,14.541l15.056-1.592    C509.384,224.364,508.673,219.163,507.816,214.062z" fill="#006DF0"/>
	</g>
</g>
<g>
	<g>
		<path d="M98.213,55.858c-4.068,3.201-8.092,6.57-11.959,10.013l10.068,11.307c3.64-3.241,7.425-6.411,11.254-9.423L98.213,55.858z    " fill="#006DF0"/>
	</g>
</g>
<g>
	<g>
		<path d="M500.77,183.677l-14.511,4.32c1.39,4.669,2.652,9.441,3.753,14.185l14.748-3.421    C503.59,193.717,502.248,188.642,500.77,183.677z" fill="#006DF0"/>
	</g>
</g>
<g>
	<g>
		<path d="M123.858,38.096c-4.427,2.682-8.832,5.539-13.095,8.491l8.62,12.446c4.01-2.779,8.154-5.465,12.319-7.989L123.858,38.096z    " fill="#006DF0"/>
	</g>
</g>
<g>
	<g>
		<path d="M74.927,76.592c-3.648,3.669-7.233,7.499-10.653,11.383L75.637,97.98c3.22-3.656,6.592-7.26,10.026-10.714L74.927,76.592z    " fill="#006DF0"/>
	</g>
</g>
<g>
	<g>
		<path d="M151.492,23.586c-4.728,2.123-9.452,4.422-14.042,6.832l7.039,13.404c4.317-2.266,8.76-4.428,13.206-6.424L151.492,23.586    z" fill="#006DF0"/>
	</g>
</g>
<g>
	<g>
		<path d="M421.729,430.534c-3.525,3.361-7.2,6.657-10.925,9.799l9.763,11.572c3.958-3.339,7.864-6.843,11.609-10.414    L421.729,430.534z" fill="#006DF0"/>
	</g>
</g>
<g>
	<g>
		<path d="M458.893,385.302c-2.61,4.108-5.382,8.189-8.237,12.13l12.26,8.883c3.035-4.189,5.98-8.527,8.755-12.892L458.893,385.302z    " fill="#006DF0"/>
	</g>
</g>
<g>
	<g>
		<path d="M441.692,409.043c-3.089,3.76-6.336,7.476-9.653,11.046l11.092,10.304c3.524-3.794,6.976-7.744,10.259-11.74    L441.692,409.043z" fill="#006DF0"/>
	</g>
</g>
<g>
	<g>
		<path d="M348.383,478.456c-4.503,1.877-9.12,3.638-13.728,5.234l4.955,14.306c4.899-1.698,9.812-3.57,14.6-5.566L348.383,478.456z    " fill="#006DF0"/>
	</g>
</g>
<g>
	<g>
		<path d="M374.735,465.513c-4.236,2.413-8.601,4.727-12.976,6.874l6.675,13.589c4.651-2.284,9.293-4.744,13.796-7.31    L374.735,465.513z" fill="#006DF0"/>
	</g>
</g>
<g>
	<g>
		<path d="M399.303,449.453c-3.915,2.914-7.964,5.742-12.038,8.405l8.284,12.672c4.33-2.831,8.635-5.836,12.794-8.932    L399.303,449.453z" fill="#006DF0"/>
	</g>
</g>
<g>
	<g>
		<path d="M511.098,245.074l-15.125,0.675c0.161,3.612,0.243,7.277,0.243,10.894c0,1.265-0.009,2.527-0.029,3.787l15.138,0.235    c0.021-1.338,0.031-2.679,0.031-4.023C511.355,252.803,511.268,248.91,511.098,245.074z" fill="#006DF0"/>
	</g>
</g>
<g>
	<g>
		<path d="M495.518,275.095c-0.368,4.859-0.891,9.766-1.554,14.587l14.998,2.063c0.704-5.123,1.261-10.339,1.652-15.504    L495.518,275.095z" fill="#006DF0"/>
	</g>
</g>
<g>
	<g>
		<path d="M484.002,332.484c-1.535,4.616-3.235,9.248-5.054,13.767l14.046,5.652c1.934-4.806,3.743-9.734,5.375-14.644    L484.002,332.484z" fill="#006DF0"/>
	</g>
</g>
<g>
	<g>
		<path d="M473.067,359.666c-2.086,4.387-4.337,8.772-6.692,13.031l13.249,7.326c2.504-4.529,4.899-9.192,7.117-13.858    L473.067,359.666z" fill="#006DF0"/>
	</g>
</g>
<g>
	<g>
		<path d="M491.522,304.145c-0.958,4.775-2.076,9.581-3.324,14.284l14.633,3.884c1.327-5.002,2.517-10.113,3.535-15.191    L491.522,304.145z" fill="#006DF0"/>
	</g>
</g>
<g>
	<g>
		<path d="M52.567,384.45l-12.811,8.066c2.757,4.379,5.688,8.736,8.712,12.945l12.297-8.831    C57.919,392.669,55.162,388.571,52.567,384.45z" fill="#006DF0"/>
	</g>
</g>
<g>
	<g>
		<path d="M136.375,465.005l-7.551,13.122c4.483,2.58,9.105,5.054,13.735,7.354l6.734-13.56    C144.939,469.757,140.592,467.431,136.375,465.005z" fill="#006DF0"/>
	</g>
</g>
<g>
	<g>
		<path d="M111.909,448.865l-9.091,12.107c4.137,3.107,8.424,6.126,12.742,8.975l8.337-12.638    C119.834,454.628,115.801,451.788,111.909,448.865z" fill="#006DF0"/>
	</g>
</g>
<g>
	<g>
		<path d="M89.57,429.863L79.079,440.78c3.729,3.583,7.619,7.102,11.564,10.456l9.811-11.531    C96.741,436.547,93.08,433.235,89.57,429.863z" fill="#006DF0"/>
	</g>
</g>
<g>
	<g>
		<path d="M69.689,408.287l-11.736,9.564c3.267,4.01,6.705,7.975,10.216,11.786l11.134-10.259    C75.998,415.793,72.764,412.061,69.689,408.287z" fill="#006DF0"/>
	</g>
</g>
<g>
	<g>
		<path d="M162.606,478.031l-5.892,13.946c4.761,2.012,9.647,3.9,14.523,5.616l5.024-14.282    C171.677,481.697,167.082,479.921,162.606,478.031z" fill="#006DF0"/>
	</g>
</g>
<g>
	<g>
		<path d="M218.883,494.01l-2.321,14.962c5.111,0.792,10.318,1.437,15.475,1.918l1.404-15.075    C228.589,495.364,223.69,494.756,218.883,494.01z" fill="#006DF0"/>
	</g>
</g>
<g>
	<g>
		<path d="M190.238,487.749l-4.135,14.564c4.98,1.414,10.069,2.692,15.128,3.797l3.233-14.79    C199.706,490.281,194.92,489.08,190.238,487.749z" fill="#006DF0"/>
	</g>
</g>
<g>
	<g>
		<path d="M262.766,496.768c-4.845,0.133-9.804,0.122-14.681-0.035l-0.49,15.132c2.789,0.09,5.616,0.136,8.406,0.136    c2.391,0,4.808-0.033,7.184-0.099L262.766,496.768z" fill="#006DF0"/>
	</g>
</g>
<g>
	<g>
		<path d="M291.98,494.184c-4.807,0.724-9.709,1.307-14.565,1.735l1.33,15.081c5.163-0.456,10.373-1.076,15.484-1.844    L291.98,494.184z" fill="#006DF0"/>
	</g>
</g>
<g>
	<g>
		<path d="M320.654,488.061c-4.686,1.306-9.477,2.485-14.242,3.502l3.162,14.806c5.067-1.082,10.163-2.335,15.146-3.724    L320.654,488.061z" fill="#006DF0"/>
	</g>
</g>
<g>
	<g>
		<path d="M405.225,157.233l-12.559,8.454c16.813,24.978,26.293,53.84,27.66,83.892H264.075v-77.717h24.728v-15.14h-24.728V93.321    c9.162,0.419,18.271,1.587,27.168,3.507l3.195-14.799c-12.392-2.676-25.155-4.033-37.933-4.033    c-98.785,0-179.153,80.367-179.153,179.153c0,37.769,11.758,72.839,31.793,101.762v0.683h0.474    c30.321,43.342,79.308,72.7,135.201,76.316c4.17,0.929,8.408,1.401,12.694,1.401c4.565,0,9.073-0.547,13.506-1.6    c92.023-7.413,164.638-84.664,164.638-178.562C435.657,221.362,425.134,186.811,405.225,157.233z M210.736,99.642    c-9.105,8.675-17.471,19.961-24.811,33.673c-3.916,7.315-7.448,15.147-10.578,23.407h-48.422    C147.896,129.726,177.1,109.432,210.736,99.642z M116.46,171.862h53.75c-7.165,23.681-11.292,50.149-12.002,77.717H92.673    C93.968,221.216,102.497,194.707,116.46,171.862z M92.672,264.719h65.496c0.556,28.294,4.702,55.477,12.042,79.736h-52.489    C103.013,321.159,94.006,293.924,92.672,264.719z M128.523,359.594h46.825c3.129,8.26,6.661,16.091,10.578,23.407    c6.549,12.235,13.915,22.542,21.894,30.785C176.248,403.952,148.748,384.81,128.523,359.594z M248.934,420.981    c-0.599-0.027-1.196-0.059-1.793-0.092c-17.76-4.391-34.466-19.993-47.87-45.033c-2.756-5.149-5.305-10.585-7.648-16.262h57.31    V420.981z M248.934,344.454h-62.868c-7.768-23.899-12.17-51.167-12.757-79.736h75.625V344.454z M248.934,249.579h-75.582    c0.748-27.835,5.129-54.381,12.713-77.717h62.869V249.579z M248.935,156.723h-57.311c2.343-5.677,4.891-11.114,7.648-16.262    c13.854-25.881,31.235-41.676,49.663-45.434V156.723z M264.074,264.719h77.643c-0.585,28.569-4.989,55.836-12.756,79.736h-64.888    V264.719z M268.529,420.719c-1.48,0.108-2.964,0.194-4.454,0.261v-61.387h59.328c-2.343,5.677-4.891,11.114-7.648,16.262    C302.514,400.593,286.049,416.115,268.529,420.719z M308.115,412.835c7.63-8.081,14.688-18.065,20.988-29.834    c3.916-7.315,7.448-15.147,10.578-23.407h44.806C364.889,384.027,338.458,402.75,308.115,412.835z M344.817,344.454    c7.34-24.259,11.485-51.442,12.042-79.736h63.478c-1.333,29.205-10.341,56.44-25.049,79.736H344.817z" fill="#006DF0"/>
	</g>
</g>
<g>
</g>
<g>
</g>
<g>
</g>
<g>
</g>
<g>
</g>
<g>
</g>
<g>
</g>
<g>
</g>
<g>
</g>
<g>
</g>
<g>
</g>
<g>
</g>
<g>
</g>
<g>
</g>
<g>
</g>
</svg>
